<svg width="107" height="17" viewBox="0 0 107 17" fill="none" xmlns="http://www.w3.org/2000/svg">
<path d="M4.96875 9.66406C4.45312 9.64844 3.9375 9.59375 3.42188 9.5C2.90625 9.40625 2.48438 9.23438 2.15625 8.98438C1.70312 8.65625 1.34375 8.25781 1.07812 7.78906C0.8125 7.30469 0.679688 6.66406 0.679688 5.86719C0.679688 5.00781 0.90625 4.26562 1.35938 3.64062C1.8125 3 2.35156 2.47656 2.97656 2.07031C3.67969 1.64844 4.375 1.3125 5.0625 1.0625C5.76562 0.8125 6.63281 0.679687 7.66406 0.664062C8.22656 0.664062 8.83594 0.71875 9.49219 0.828125C10.1641 0.9375 10.7812 1.16406 11.3438 1.50781C11.9219 1.85156 12.4062 2.29687 12.7969 2.84375C13.2031 3.39063 13.4062 3.97656 13.4062 4.60156C13.4062 5.11719 13.2031 5.375 12.7969 5.375C12.2656 5.48438 11.9375 5.3125 11.8125 4.85938C11.7031 4.4375 11.5312 4.07031 11.2969 3.75781C11.0625 3.42969 10.7422 3.11719 10.3359 2.82031C10.0391 2.63281 9.67188 2.48437 9.23438 2.375C8.79688 2.26563 8.27344 2.21875 7.66406 2.23438C7.19531 2.23438 6.67969 2.30469 6.11719 2.44531C5.55469 2.58594 4.96094 2.82813 4.33594 3.17188C3.71094 3.59375 3.24219 4 2.92969 4.39062C2.61719 4.76562 2.45312 5.23438 2.4375 5.79688C2.46875 6.51562 2.59375 7.04688 2.8125 7.39062C3.04688 7.71875 3.5 7.9375 4.17188 8.04688C4.82812 8.10938 5.45312 8.17188 6.04688 8.23438C6.64062 8.28125 7.42188 8.35156 8.39062 8.44531C9.53125 8.53906 10.3672 8.73438 10.8984 9.03125C11.4297 9.3125 11.875 9.60938 12.2344 9.92188C12.75 10.4375 13.0625 10.9453 13.1719 11.4453C13.2812 11.9297 13.3359 12.4062 13.3359 12.875C13.2422 14.5312 12.6797 15.6016 11.6484 16.0859C10.6328 16.5547 9.55469 16.7578 8.41406 16.6953C7.27344 16.7578 6.41406 16.7422 5.83594 16.6484C5.25781 16.5391 4.67188 16.3438 4.07812 16.0625C3.57812 15.8281 3.14062 15.5547 2.76562 15.2422C2.40625 14.9141 2.03906 14.5234 1.66406 14.0703C1.46094 13.8047 1.375 13.5469 1.40625 13.2969C1.4375 13.0469 1.57812 12.8516 1.82812 12.7109C2.15625 12.5391 2.41406 12.5 2.60156 12.5938C2.80469 12.6875 2.99219 12.8359 3.16406 13.0391C3.49219 13.4609 3.78125 13.7734 4.03125 13.9766C4.29688 14.1641 4.65625 14.3984 5.10938 14.6797C5.54688 14.8984 6.02344 15.0391 6.53906 15.1016C7.07031 15.1484 7.74219 15.1641 8.55469 15.1484C9.50781 15.1328 10.2344 14.9766 10.7344 14.6797C11.2344 14.3672 11.5234 13.7891 11.6016 12.9453C11.6484 12.4453 11.6016 12.0469 11.4609 11.75C11.3359 11.4375 11.0938 11.1094 10.7344 10.7656C10.4844 10.5938 10.125 10.4219 9.65625 10.25C9.1875 10.0781 8.69531 9.96875 8.17969 9.92188C7.77344 9.92188 7.28125 9.89062 6.70312 9.82812C6.14062 9.76562 5.5625 9.71094 4.96875 9.66406ZM16.4062 2.07031C16.6562 2.08594 16.8516 2.14062 16.9922 2.23438C17.0234 2.23438 17.0469 2.22656 17.0625 2.21094C17.5625 1.92969 18.0781 1.75 18.6094 1.67188C19.1562 1.57812 19.75 1.54687 20.3906 1.57812C21.1406 1.59375 21.9062 1.69531 22.6875 1.88281C23.4844 2.05469 24.0703 2.28906 24.4453 2.58594C25.2109 2.99219 25.8125 3.55469 26.25 4.27344C26.7031 4.97656 26.9531 5.76562 27 6.64062C27.0312 7.32812 26.9375 8.05469 26.7188 8.82031C26.5 9.57031 26.1875 10.1484 25.7812 10.5547C25.4531 10.9141 24.9141 11.2734 24.1641 11.6328C23.4141 11.9922 22.5469 12.2109 21.5625 12.2891C20.7031 12.3984 19.8594 12.4297 19.0312 12.3828C18.5312 12.3672 18.0469 12.3281 17.5781 12.2656C17.5938 13.6875 17.6094 14.6641 17.625 15.1953C17.5938 15.6953 17.3359 15.9453 16.8516 15.9453C16.6172 15.9453 16.4062 15.8828 16.2188 15.7578C16.0312 15.6172 15.9375 15.3984 15.9375 15.1016C15.9531 13.5078 15.9375 11.7734 15.8906 9.89844C15.8594 8.00781 15.7891 5.76562 15.6797 3.17188C15.6797 2.78125 15.7344 2.5 15.8438 2.32812C15.9531 2.15625 16.1406 2.07031 16.4062 2.07031ZM17.3672 3.75781C17.4297 5.60156 17.4844 7.46094 17.5312 9.33594C17.5312 9.80469 17.5391 10.2422 17.5547 10.6484C18.1328 10.7422 18.6406 10.7969 19.0781 10.8125C19.6875 10.8281 20.3438 10.8125 21.0469 10.7656C22.0625 10.6406 22.8047 10.4688 23.2734 10.25C23.7422 10.0156 24.0781 9.8125 24.2812 9.64062C24.7344 9.21875 25.0312 8.71875 25.1719 8.14062C25.3125 7.5625 25.3516 6.98438 25.2891 6.40625C25.1953 5.78125 24.9766 5.27344 24.6328 4.88281C24.3047 4.47656 23.9844 4.1875 23.6719 4.01562C23.1094 3.67188 22.6016 3.45312 22.1484 3.35938C21.7109 3.25 21.1719 3.16406 20.5312 3.10156C20.0781 3.10156 19.625 3.13281 19.1719 3.19531C18.7344 3.24219 18.2656 3.38281 17.7656 3.61719C17.625 3.67969 17.4922 3.72656 17.3672 3.75781ZM32.9297 2.16406C33.1016 2.13281 33.2656 2.14844 33.4219 2.21094C33.8906 1.97656 34.3516 1.82031 34.8047 1.74219C35.2891 1.67969 35.7734 1.64844 36.2578 1.64844C36.6172 1.64844 37.0703 1.71094 37.6172 1.83594C38.1797 1.94531 38.8359 2.21875 39.5859 2.65625C40.7891 3.40625 41.625 4.26562 42.0938 5.23438C42.5781 6.1875 42.8203 7.35156 42.8203 8.72656C42.7266 10.1328 42.4922 11.2344 42.1172 12.0312C41.7422 12.8281 41.1641 13.5547 40.3828 14.2109C39.9297 14.5859 39.3516 14.8828 38.6484 15.1016C37.9609 15.3047 37.2422 15.3984 36.4922 15.3828C34.2734 15.4609 32.5312 14.9688 31.2656 13.9062C30.25 13.1719 29.5781 12.375 29.25 11.5156C28.9219 10.6562 28.7422 9.82812 28.7109 9.03125C28.7109 7.78125 28.8828 6.74219 29.2266 5.91406C29.5859 5.07031 30.0703 4.34375 30.6797 3.73438C31.0078 3.40625 31.3672 3.10156 31.7578 2.82031C32.1484 2.53906 32.5391 2.32031 32.9297 2.16406ZM33.2344 3.80469C32.2031 4.41406 31.4688 5.13281 31.0312 5.96094C30.5625 6.83594 30.3359 7.86719 30.3516 9.05469C30.4297 9.89844 30.6562 10.6328 31.0312 11.2578C31.4062 11.8672 31.8594 12.3359 32.3906 12.6641C33.5312 13.3203 34.8203 13.6875 36.2578 13.7656C37.8516 13.8125 39.0625 13.3359 39.8906 12.3359C40.7188 11.3359 41.1484 10.1094 41.1797 8.65625C41.1797 7.5625 41.0156 6.70312 40.6875 6.07812C40.3594 5.4375 39.9062 4.88281 39.3281 4.41406C38.8906 4.10156 38.4766 3.85156 38.0859 3.66406C37.7109 3.46094 37.0391 3.29688 36.0703 3.17188C35.6172 3.1875 35.1797 3.26562 34.7578 3.40625C34.4297 3.51562 34.125 3.64844 33.8438 3.80469C33.625 3.92969 33.4219 3.92969 33.2344 3.80469ZM45.5859 2.11719C45.7734 2.10156 45.9375 2.125 46.0781 2.1875C46.5312 1.89063 47 1.67188 47.4844 1.53125C48 1.375 48.5781 1.28125 49.2188 1.25C49.9844 1.1875 50.7578 1.21875 51.5391 1.34375C52.3359 1.45312 52.9375 1.64062 53.3438 1.90625C54.1406 2.20312 54.8047 2.67969 55.3359 3.33594C55.8672 3.99219 56.2031 4.75 56.3438 5.60938C56.4531 6.28125 56.4297 6.96094 56.2734 7.64844C56.1172 8.32031 55.8047 8.89844 55.3359 9.38281C55.0859 9.71094 54.6953 10.0391 54.1641 10.3672C54.5391 10.9453 54.9062 11.5312 55.2656 12.125C55.7031 12.8594 56.125 13.6641 56.5312 14.5391C56.6719 14.9141 56.7344 15.1953 56.7188 15.3828C56.7031 15.5547 56.5859 15.7266 56.3672 15.8984C56.0703 16.0234 55.8125 16.0469 55.5938 15.9688C55.3906 15.875 55.2031 15.6641 55.0312 15.3359C54.625 14.5859 54.2109 13.8203 53.7891 13.0391C53.4609 12.4297 53.0859 11.7734 52.6641 11.0703C52.2422 11.2266 51.7812 11.3438 51.2812 11.4219C50.4062 11.625 49.5781 11.7422 48.7969 11.7734L47.1562 11.8672C47.1875 12.1172 47.2188 12.3594 47.25 12.5938C47.3906 13.5938 47.4766 14.4453 47.5078 15.1484C47.5234 15.6641 47.2891 15.9453 46.8047 15.9922C46.5703 16.0078 46.3516 15.9609 46.1484 15.8516C45.9609 15.7266 45.8516 15.5234 45.8203 15.2422C45.6641 13.8203 45.5 12.125 45.3281 10.1562C45.1719 8.17188 45.0391 5.88281 44.9297 3.28906C44.8828 2.89844 44.9141 2.61719 45.0234 2.44531C45.1328 2.25781 45.3203 2.14844 45.5859 2.11719ZM46.6406 3.66406C46.6562 4.49219 46.6875 5.22656 46.7344 5.86719C46.7812 6.67969 46.8359 7.71094 46.8984 8.96094C46.9297 9.44531 46.9609 9.90625 46.9922 10.3438C47.5234 10.3438 48 10.3203 48.4219 10.2734C49.0469 10.2266 49.6875 10.1641 50.3438 10.0859C51.2188 9.97656 51.9531 9.77344 52.5469 9.47656C53.1406 9.16406 53.5859 8.88281 53.8828 8.63281C54.2891 8.17969 54.5391 7.70312 54.6328 7.20312C54.7266 6.6875 54.7188 6.14062 54.6094 5.5625C54.4531 4.95312 54.1719 4.46875 53.7656 4.10938C53.3594 3.75 53.0078 3.5 52.7109 3.35938C52.1016 3.07812 51.5703 2.91406 51.1172 2.86719C50.6797 2.80469 50.1406 2.77344 49.5 2.77344C49.0469 2.82031 48.6094 2.89062 48.1875 2.98438C47.7656 3.07812 47.3125 3.27344 46.8281 3.57031C46.7656 3.61719 46.7031 3.64844 46.6406 3.66406ZM63.375 1.78906C63.375 1.75781 63.3906 1.72656 63.4219 1.69531C63.5 1.53906 63.6953 1.45312 64.0078 1.4375C64.3203 1.40625 64.5703 1.44531 64.7578 1.55469C64.8359 1.61719 64.8984 1.6875 64.9453 1.76562C65.3828 1.76562 65.8594 1.75781 66.375 1.74219C66.7188 1.74219 67.2109 1.71094 67.8516 1.64844C68.5078 1.58594 69.2891 1.55469 70.1953 1.55469C70.5391 1.58594 70.75 1.66406 70.8281 1.78906C70.9219 1.91406 70.9844 2.09375 71.0156 2.32812C71 2.54688 70.9453 2.74219 70.8516 2.91406C70.7578 3.07031 70.4922 3.14062 70.0547 3.125C69.6016 3.17188 68.9922 3.21094 68.2266 3.24219C67.4766 3.27344 66.7266 3.28906 65.9766 3.28906C65.6641 3.30469 65.3594 3.3125 65.0625 3.3125C65.0938 4.04688 65.125 4.85156 65.1562 5.72656C65.2031 7.07031 65.2891 8.54688 65.4141 10.1562C65.4766 10.9062 65.5391 11.7344 65.6016 12.6406C65.6641 13.5312 65.6875 14.2891 65.6719 14.9141C65.7031 15.2891 65.6562 15.5625 65.5312 15.7344C65.4062 15.8906 65.1875 15.9688 64.875 15.9688C64.5625 15.9531 64.3203 15.875 64.1484 15.7344C63.9766 15.5938 63.8984 15.3359 63.9141 14.9609C63.8984 14.3359 63.8672 13.5781 63.8203 12.6875C63.7891 11.7812 63.7422 10.7656 63.6797 9.64062C63.6172 8.625 63.5547 7.42969 63.4922 6.05469C63.4609 5.07031 63.4219 4.16406 63.375 3.33594C62.7344 3.33594 62.1875 3.32812 61.7344 3.3125C60.7344 3.26562 59.8125 3.21875 58.9688 3.17188C58.6406 3.125 58.3594 3.07812 58.125 3.03125C57.9062 2.96875 57.7734 2.73438 57.7266 2.32812C57.7266 1.85938 57.9766 1.61719 58.4766 1.60156L59.7188 1.64844C60.875 1.69531 61.8828 1.73437 62.7422 1.76562C62.9297 1.78125 63.1406 1.78906 63.375 1.78906ZM74.1094 13.8594C74.4219 13.8594 74.7109 13.8516 74.9766 13.8359C74.9453 12.3828 74.9297 11.3359 74.9297 10.6953C74.8984 9.99219 74.8359 8.74219 74.7422 6.94531C74.7266 6.07031 74.7031 5.28125 74.6719 4.57812C74.625 4.04688 74.5781 3.47656 74.5312 2.86719C73.7812 2.88281 73.1641 2.89844 72.6797 2.91406C72.2734 2.88281 72.0391 2.65625 71.9766 2.23438C71.9766 1.95312 72.0234 1.75 72.1172 1.625C72.2109 1.5 72.4375 1.40625 72.7969 1.34375C74.2188 1.375 75.6953 1.34375 77.2266 1.25C77.5703 1.25 77.8047 1.35156 77.9297 1.55469C78.0547 1.74219 78.1094 1.96094 78.0938 2.21094C78.0938 2.46094 78 2.625 77.8125 2.70312C77.6406 2.78125 77.4688 2.82031 77.2969 2.82031C76.8906 2.82031 76.5078 2.82813 76.1484 2.84375C76.1953 3.51562 76.2266 4.04688 76.2422 4.4375C76.2578 4.9375 76.3359 6.24219 76.4766 8.35156C76.5078 9.49219 76.5391 10.6641 76.5703 11.8672C76.5859 12.6484 76.6016 13.2891 76.6172 13.7891C77.1172 13.7734 77.4609 13.7578 77.6484 13.7422C78.0703 13.7266 78.5391 13.7422 79.0547 13.7891C79.3984 13.8359 79.6641 13.9297 79.8516 14.0703C80.0547 14.1953 80.1562 14.375 80.1562 14.6094C80.2188 15 80.0859 15.2422 79.7578 15.3359C79.4297 15.4297 79.1172 15.4531 78.8203 15.4062C78.0391 15.3438 77.4219 15.3281 76.9688 15.3594C76.5156 15.375 75.9219 15.3828 75.1875 15.3828C74.6406 15.3828 74.1328 15.4062 73.6641 15.4531C73.1953 15.4844 72.7578 15.5 72.3516 15.5C71.9609 15.5 71.75 15.25 71.7188 14.75C71.6875 14.3438 71.8828 14.0781 72.3047 13.9531C72.6953 13.9219 73.0625 13.8984 73.4062 13.8828C73.7656 13.8672 74 13.8594 74.1094 13.8594ZM91.125 9.59375C89.875 9.57812 88.5391 9.57031 87.1172 9.57031C86.0078 9.57031 84.8594 9.57812 83.6719 9.59375C83.7031 10.7656 83.7578 11.7656 83.8359 12.5938C83.9141 13.4844 83.9766 14.1406 84.0234 14.5625C84.1172 14.8594 84.1172 15.1172 84.0234 15.3359C83.9453 15.5547 83.7578 15.6797 83.4609 15.7109C83.1172 15.7578 82.8516 15.6719 82.6641 15.4531C82.4766 15.2188 82.3594 14.9688 82.3125 14.7031C82.1719 13.8594 82.0781 12.8516 82.0312 11.6797C82 10.4922 81.9922 9.125 82.0078 7.57812C81.9922 6.75 81.9766 5.92969 81.9609 5.11719C81.9453 4.28906 81.9219 3.70312 81.8906 3.35938C81.8438 2.8125 81.9219 2.42188 82.125 2.1875C82.3438 1.95312 82.7969 1.82812 83.4844 1.8125C84.4844 1.79688 85.2969 1.77344 85.9219 1.74219C86.5312 1.71094 87.3906 1.67188 88.5 1.625C89.625 1.5625 90.8359 1.44531 92.1328 1.27344C92.5078 1.21094 92.7812 1.26562 92.9531 1.4375C93.125 1.59375 93.2109 1.78906 93.2109 2.02344C93.2422 2.27344 93.1953 2.47656 93.0703 2.63281C92.9453 2.77344 92.75 2.85156 92.4844 2.86719C92.1875 2.89844 91.7188 2.95312 91.0781 3.03125C90.4531 3.10938 90.0547 3.14844 89.8828 3.14844C88.8516 3.19531 87.7734 3.25781 86.6484 3.33594C85.5234 3.41406 84.5469 3.45312 83.7188 3.45312C83.6875 4.3125 83.6719 5.3125 83.6719 6.45312V8C84.8281 8 85.9531 7.97656 87.0469 7.92969C88.4062 7.88281 89.875 7.89062 91.4531 7.95312C92 8.04688 92.2734 8.32031 92.2734 8.77344C92.2734 9.07031 92.1719 9.28125 91.9688 9.40625C91.7656 9.53125 91.4844 9.59375 91.125 9.59375ZM100.148 6.89844L101.18 5.67969C101.82 4.85156 102.391 4.04688 102.891 3.26562C103.406 2.48437 103.938 1.64844 104.484 0.757812C104.562 0.617188 104.688 0.5 104.859 0.40625C105.047 0.3125 105.336 0.328125 105.727 0.453125C105.93 0.546875 106.055 0.703125 106.102 0.921875C106.148 1.125 106.094 1.36719 105.938 1.64844C105.609 2.21094 105.25 2.78125 104.859 3.35938C104.469 3.92188 104.078 4.49219 103.688 5.07031L101.016 8.58594C101.031 9.44531 101.039 10.1328 101.039 10.6484C101.055 11.1641 101.086 11.8516 101.133 12.7109C101.133 13.2266 101.141 13.7422 101.156 14.2578C101.188 14.7578 101.219 15.1875 101.25 15.5469C101.25 15.8594 101.211 16.1094 101.133 16.2969C101.07 16.4844 100.797 16.5859 100.312 16.6016C100.031 16.5703 99.8359 16.5 99.7266 16.3906C99.6328 16.2656 99.5625 16.0625 99.5156 15.7812C99.4844 14.5469 99.4531 13.4219 99.4219 12.4062C99.4062 11.3906 99.375 10.125 99.3281 8.60938C98.625 7.92188 97.7656 6.99219 96.75 5.82031C95.75 4.63281 94.8516 3.45312 94.0547 2.28125C93.8672 1.96875 93.7812 1.71875 93.7969 1.53125C93.8125 1.34375 93.9297 1.16406 94.1484 0.992188C94.4922 0.789063 94.7656 0.742188 94.9688 0.851562C95.1875 0.960937 95.3594 1.10938 95.4844 1.29688C95.9062 1.96875 96.5156 2.78125 97.3125 3.73438C98.125 4.6875 98.6094 5.25 98.7656 5.42188L100.148 6.89844Z" fill="#0096C7"/>
</svg>
